<?xml version="1.0" standalone="no"?><!DOCTYPE svg PUBLIC "-//W3C//DTD SVG 1.1//EN" "http://www.w3.org/Graphics/SVG/1.1/DTD/svg11.dtd"><svg class="icon" width="200px" height="200.00px" viewBox="0 0 1024 1024" version="1.1" xmlns="http://www.w3.org/2000/svg"><path d="M815.847751 852.599282 206.781018 852.599282c-42.045605 0-76.133981-13.852496-76.133981-55.653531L130.647037 302.745139c0-41.802058 34.089399-55.654554 76.133981-55.654554l129.770576 0 60.564377-75.689866 228.835825 0 60.566424 75.689866 129.329531 0c42.045605 0 76.139098 13.852496 76.139098 55.654554l0 494.200612C891.986849 838.746786 857.892333 852.599282 815.847751 852.599282L815.847751 852.599282zM511.31592 360.624361c-105.121176 0-190.33393 84.715427-190.33393 189.219549 0 104.510262 85.212754 189.224666 190.33393 189.224666 105.122199 0 190.335976-84.714404 190.335976-189.224666C701.651896 445.339788 616.437096 360.624361 511.31592 360.624361L511.31592 360.624361zM511.31592 663.380756c-63.079664 0-114.199948-50.827619-114.199948-113.535823 0-62.707181 51.120284-113.529683 114.199948-113.529683 63.076594 0 114.201995 50.822502 114.201995 113.529683C625.516892 612.553137 574.392514 663.380756 511.31592 663.380756L511.31592 663.380756zM511.31592 663.380756" /></svg>