<?xml version="1.0" standalone="no"?><!DOCTYPE svg PUBLIC "-//W3C//DTD SVG 1.1//EN" "http://www.w3.org/Graphics/SVG/1.1/DTD/svg11.dtd"><svg class="icon" width="200px" height="200.00px" viewBox="0 0 1024 1024" version="1.1" xmlns="http://www.w3.org/2000/svg"><path d="M729.482755 110.975511c-82.770122 0-159.725818 38.59604-217.490429 108.872616-57.7114-70.223365-134.518716-108.763123-217.159902-108.763123-122.374118 0-252.417917 91.885733-252.417917 262.213004 0 175.206394 155.37472 297.488415 268.817422 386.770857 42.960441 33.881668 74.476225 57.893548 100.102882 77.432557 40.522925 30.852682 60.84681 46.336328 82.769099 68.130703 4.751211 4.770653 11.116175 7.394411 17.885346 7.394411 6.749728 0 13.097296-2.606361 17.884322-7.374968 28.984125-28.818349 55.308677-48.776913 125.82266-102.232382l56.701396-43.073005c94.068446-71.486124 269.185812-204.573235 269.185812-388.787794C981.58754 202.293309 851.691097 110.975511 729.482755 110.975511z" /></svg>