<?xml version="1.0" standalone="no"?><!DOCTYPE svg PUBLIC "-//W3C//DTD SVG 1.1//EN" "http://www.w3.org/Graphics/SVG/1.1/DTD/svg11.dtd"><svg class="icon" width="200px" height="200.00px" viewBox="0 0 1024 1024" version="1.1" xmlns="http://www.w3.org/2000/svg"><path d="M846.709643 237.420341c-18.298761-43.263339-44.487214-82.109066-77.834716-115.458615C735.525378 88.6132 696.678628 62.424748 653.416312 44.124963 608.602663 25.172309 561.024042 15.561417 512.000512 15.561417s-96.602152 9.610892-141.413753 28.563546c-43.263339 18.299785-82.109066 44.488237-115.458615 77.835739-33.348526 33.349549-59.538001 72.195276-77.835739 115.458615-18.952654 44.812625-28.564569 92.391247-28.564569 141.413753 0 48.703235 9.489118 95.981005 28.204365 140.544967 30.141484 87.769996 84.771709 192.286398 162.392554 310.682925 54.613852 83.300194 100.884688 143.100162 107.36938 151.411455 1.721201 2.477424 15.684214 16.560164 15.684214 16.560164 13.768585 10.731412 31.187303 16.756639 49.77259 16.756639 27.703969 0 53.139268-13.706163 67.236334-35.996842 12.253068-15.859199 59.796898-78.343299 113.310695-161.045883 73.39766-113.424282 125.33045-213.804481 154.370857-298.367435 18.717294-44.568055 28.204365-91.841731 28.204365-140.54599C875.274212 329.811588 865.66332 282.232966 846.709643 237.420341zM771.13234 488.766856l-0.584308 1.375324-0.481977 1.414209C743.658615 568.961316 693.140035 666.37802 623.967606 773.273608c-54.163597 83.703377-101.716636 145.629775-110.701265 157.194158l-1.153266 1.483794L499.827261 916.169109c-42.833551-56.849776-188.946326-257.68078-245.89434-424.613744l-0.481977-1.414209-0.584308-1.375324c-14.781658-34.792411-22.277376-71.780837-22.277376-109.932762 0-75.165933 29.271674-145.83546 82.422198-198.985984 53.151547-53.150524 123.82005-82.422198 198.987007-82.422198S657.835971 126.696564 710.985472 179.847088c53.150524 53.150524 82.423221 123.82005 82.423221 198.985984C793.409716 416.986019 785.915022 453.972399 771.13234 488.766856zM511.119445 190.522218c-97.469915 0-176.767959 79.299067-176.767959 176.770006s79.298044 176.768983 176.767959 176.768983c97.472985 0 176.770006-79.298044 176.770006-176.768983S608.590384 190.522218 511.119445 190.522218zM511.119445 462.195687c-52.330856 0-94.903463-42.573631-94.903463-94.904487 0-52.332902 42.573631-94.90551 94.903463-94.90551 52.332902 0 94.90551 42.573631 94.90551 94.90551C606.024955 419.62308 563.450301 462.195687 511.119445 462.195687z" /></svg>