<?xml version="1.0" standalone="no"?><!DOCTYPE svg PUBLIC "-//W3C//DTD SVG 1.1//EN" "http://www.w3.org/Graphics/SVG/1.1/DTD/svg11.dtd"><svg class="icon" width="200px" height="200.00px" viewBox="0 0 1024 1024" version="1.1" xmlns="http://www.w3.org/2000/svg"><path d="M880 128l-736 0C64 128 0 169.6 0 256l0 412.8C0 755.2 64 832 144 832l204.8 0 118.4 128c25.6 25.6 64 25.6 89.6-3.2l118.4-124.8 204.8 0c80 0 144-76.8 144-163.2L1024 256C1024 169.6 960 128 880 128zM236.8 515.2c-41.6 0-73.6-32-73.6-73.6 0-41.6 32-73.6 73.6-73.6 41.6 0 73.6 32 73.6 73.6C310.4 483.2 278.4 515.2 236.8 515.2zM512 515.2c-41.6 0-73.6-32-73.6-73.6 0-41.6 32-73.6 73.6-73.6 41.6 0 73.6 32 73.6 73.6C585.6 483.2 553.6 515.2 512 515.2zM787.2 515.2c-41.6 0-73.6-32-73.6-73.6 0-41.6 32-73.6 73.6-73.6 41.6 0 73.6 32 73.6 73.6C860.8 483.2 828.8 515.2 787.2 515.2z" /></svg>