<?xml version="1.0" standalone="no"?><!DOCTYPE svg PUBLIC "-//W3C//DTD SVG 1.1//EN" "http://www.w3.org/Graphics/SVG/1.1/DTD/svg11.dtd"><svg class="icon" width="200px" height="179.96px" viewBox="0 0 1138 1024" version="1.1" xmlns="http://www.w3.org/2000/svg"><path d="M533.447111 136.760889c-219.591111 0-398.222222 178.631111-398.222222 398.222222s178.631111 398.222222 398.222222 398.222222 398.222222-178.631111 398.222222-398.222222S753.038222 136.760889 533.447111 136.760889zM533.447111 880.128c-190.293333 0-345.144889-154.851556-345.144889-345.144889s154.851556-345.144889 345.144889-345.144889 345.144889 154.851556 345.144889 345.144889S723.740444 880.128 533.447111 880.128zM690.688 607.630222 560.014222 520.760889 560.014222 288.995556c0-14.677333-11.889778-26.567111-26.567111-26.567111S506.88 274.318222 506.88 288.995556l0 245.987556c0 8.874667 4.437333 17.180444 11.832889 22.129778l142.620444 94.72c4.494222 3.015111 9.614222 4.437333 14.677333 4.437333 8.533333 0 17.009778-4.152889 22.072889-11.889778C706.275556 632.206222 702.976 615.708444 690.688 607.630222z" /></svg>